<svg xmlns="http://www.w3.org/2000/svg" xmlns:xlink="http://www.w3.org/1999/xlink" width="400" zoomAndPan="magnify" viewBox="0 0 300 149.999998" height="200" preserveAspectRatio="xMidYMid meet" version="1.0"><defs><clipPath id="a151d95556"><path d="M 1.121094 10.050781 L 264 10.050781 L 264 139.800781 L 1.121094 139.800781 Z M 1.121094 10.050781 " clip-rule="nonzero"/></clipPath><clipPath id="add3396c7a"><path d="M 231 64 L 298.871094 64 L 298.871094 84 L 231 84 Z M 231 64 " clip-rule="nonzero"/></clipPath></defs><g clip-path="url(#a151d95556)"><path fill="#ffffff" d="M 261.046875 25.746094 C 252.085938 28.820312 244.777344 34.464844 238.601562 40.394531 C 231.949219 46.785156 226.308594 53.808594 220.890625 60.898438 C 220.761719 61.070312 220.628906 61.238281 220.5 61.40625 C 219.574219 61.898438 218.640625 62.378906 217.703125 62.851562 C 215.042969 64.183594 212.296875 65.480469 209.433594 66.546875 C 210.230469 65.160156 211.035156 63.777344 212.0625 62.492188 C 213.496094 60.703125 210.105469 59.242188 208.589844 60.859375 C 205.496094 64.175781 201.910156 67.980469 197.175781 69.902344 C 197.449219 69.582031 197.726562 69.265625 198.003906 68.949219 C 199.320312 67.808594 200.558594 66.59375 201.726562 65.300781 C 203.105469 63.777344 200.136719 62.054688 198.546875 63.324219 C 197.164062 64.433594 195.96875 65.660156 194.84375 66.929688 C 192.46875 68.949219 189.875 70.632812 187.0625 71.972656 C 185.660156 72.636719 183.363281 74.019531 181.9375 72.683594 C 181.039062 71.835938 181.570312 70.765625 182.359375 69.835938 C 182.863281 69.363281 183.351562 68.878906 183.828125 68.382812 L 183.839844 68.375 C 183.945312 68.265625 184.050781 68.15625 184.15625 68.042969 C 185.554688 66.574219 182.476562 64.675781 180.964844 66.0625 C 180.378906 66.589844 179.824219 67.148438 179.300781 67.730469 C 177.519531 69.425781 175.503906 70.996094 173.253906 72.25 C 171.125 73.4375 167.859375 75.230469 165.214844 74.121094 C 164.214844 73.703125 163.4375 72.910156 163.1875 72.023438 C 162.855469 70.863281 163.46875 69.917969 164.132812 68.910156 C 165.929688 66.183594 168.09375 63.628906 170.316406 61.113281 C 171.699219 59.550781 168.730469 57.875 167.105469 59.125 C 161.753906 63.234375 156.007812 67.085938 149.78125 70.316406 C 148.1875 71.144531 146.554688 71.929688 144.871094 72.636719 C 143.640625 73.152344 142.460938 73.429688 141.140625 72.921875 C 137.832031 71.648438 139.617188 68.527344 140.921875 66.667969 C 142.023438 65.097656 139.207031 63.15625 137.699219 64.664062 C 135.378906 66.984375 133.03125 69.292969 130.394531 71.386719 C 127.929688 73.347656 125.019531 75.386719 121.734375 76.398438 C 119.363281 77.125 116.78125 75.511719 117.359375 73.453125 C 117.429688 73.203125 117.523438 72.964844 117.636719 72.734375 C 120.066406 70.835938 122.414062 68.875 124.875 67.003906 C 126.554688 65.726562 124.359375 63.363281 122.375 64.402344 C 119.4375 65.9375 116 68.082031 114.261719 70.746094 C 113.824219 71.085938 113.382812 71.421875 112.9375 71.753906 C 111.375 72.925781 109.761719 74.070312 108.039062 75.085938 C 107.222656 75.570312 106.386719 76.027344 105.527344 76.453125 C 104.773438 76.828125 103.824219 77.402344 102.921875 77.511719 C 101.75 77.652344 100.597656 76.964844 100.339844 76.046875 C 100.152344 75.378906 100.558594 74.734375 100.867188 74.128906 C 101.292969 73.285156 101.761719 72.457031 102.261719 71.644531 C 104.210938 68.460938 106.636719 65.476562 109.699219 62.917969 C 111.539062 61.378906 108.671875 59.0625 106.78125 60.570312 C 101.371094 64.894531 96.019531 69.304688 90.058594 73.152344 C 87.316406 74.925781 84.464844 76.503906 81.503906 77.886719 C 79.90625 78.632812 78.265625 79.3125 76.585938 79.933594 C 75.132812 80.46875 73.554688 81.132812 71.929688 81.1875 C 69.269531 81.277344 66.710938 79.886719 65.941406 77.8125 C 65.160156 75.699219 66.03125 73.082031 66.664062 71 C 68.285156 65.660156 71.285156 60.625 74.828125 55.949219 C 78.265625 51.414062 82.300781 47.003906 87.308594 43.507812 C 89.328125 42.097656 86.40625 39.804688 84.386719 41.160156 C 72.523438 49.128906 63.8125 59.535156 53.746094 68.851562 C 51.257812 71.15625 48.679688 73.402344 45.945312 75.519531 C 45.308594 76.011719 44.535156 76.875 43.578125 76.328125 C 42.558594 75.742188 43.453125 74.746094 43.84375 74.058594 C 47.054688 68.421875 51.386719 63.261719 55.480469 58.023438 C 59.800781 52.492188 64.074219 46.695312 65.839844 40.246094 C 66.316406 38.511719 63.941406 37.5625 62.332031 38.605469 C 56.125 42.632812 49.636719 46.367188 43.011719 49.9375 C 45.671875 45.296875 48.3125 40.636719 50.742188 35.914062 C 54.183594 29.226562 57.144531 22.375 60.761719 15.75 C 61.480469 14.4375 62.242188 13.136719 63.070312 11.863281 C 63.703125 10.890625 61.933594 10.046875 61.230469 11 C 57.199219 16.488281 54.28125 22.480469 51.28125 28.363281 C 48.492188 33.824219 45.507812 39.203125 42.433594 44.566406 C 40.867188 47.304688 39.28125 50.042969 37.65625 52.773438 C 34.039062 54.660156 30.40625 56.519531 26.746094 58.351562 C 23.453125 60.011719 20.140625 61.605469 17.175781 63.640625 C 12.40625 66.917969 8.390625 71.027344 5.4375 75.476562 C 3.382812 78.570312 1.179688 82.417969 1.53125 86.027344 C 1.828125 89.085938 4.738281 90.851562 8.464844 89.804688 C 13.546875 88.378906 17.730469 84.753906 20.992188 81.453125 C 28.65625 73.691406 34.398438 64.699219 39.667969 55.710938 C 46.546875 52.144531 53.320312 48.441406 59.828125 44.445312 C 57.800781 48.566406 54.914062 52.414062 51.992188 56.164062 C 47.574219 61.835938 42.859375 67.417969 39.566406 73.59375 C 38.230469 76.109375 39.507812 79.128906 43.109375 79.75 C 47.011719 80.425781 49.851562 77.1875 52.207031 75.195312 C 57.199219 70.96875 61.71875 66.410156 66.257812 61.875 C 64.832031 64.441406 63.640625 67.09375 62.785156 69.804688 C 61.964844 72.40625 61.125 75.425781 61.785156 78.105469 C 62.453125 80.808594 65 83.015625 68.15625 83.992188 C 71.851562 85.132812 75.277344 84.046875 78.667969 82.796875 C 82.226562 81.480469 85.648438 79.871094 88.933594 77.96875 C 91.789062 76.316406 94.554688 74.519531 97.230469 72.585938 C 97.085938 72.867188 96.9375 73.144531 96.800781 73.425781 C 96.109375 74.824219 95.941406 76.253906 96.691406 77.664062 C 98.109375 80.316406 101.976562 81.53125 105.25 80.359375 C 108.269531 79.277344 111.015625 77.550781 113.535156 75.78125 C 114.328125 77.761719 116.382812 79.386719 119.078125 79.800781 C 123.480469 80.476562 127.949219 77.550781 131.0625 75.394531 C 132.566406 74.34375 134.007812 73.207031 135.378906 71.984375 C 135.652344 72.902344 136.210938 73.785156 137.15625 74.597656 C 138.46875 75.726562 140.351562 76.402344 142.257812 76.492188 C 144.5 76.597656 146.414062 75.738281 148.304688 74.886719 C 152.246094 73.085938 156.042969 71.023438 159.691406 68.695312 C 159.582031 68.914062 159.484375 69.132812 159.394531 69.351562 C 158.21875 72.226562 159.871094 75.5 163.160156 76.953125 C 166.984375 78.644531 171.144531 77.242188 174.519531 75.5 C 175.679688 74.902344 176.796875 74.230469 177.871094 73.492188 C 179.082031 75.777344 182.285156 77.066406 185.28125 76.304688 C 187.25 75.804688 189.15625 74.925781 190.929688 73.921875 C 191.328125 74.234375 191.777344 74.375 192.28125 74.335938 C 196.746094 73.953125 200.398438 72.378906 203.566406 70.222656 C 203.953125 70.898438 204.863281 71.375 205.878906 71.117188 C 209.242188 70.234375 212.511719 69.082031 215.683594 67.660156 C 211.726562 72.757812 207.726562 77.835938 203.683594 82.890625 C 197.277344 90.890625 190.949219 98.957031 185.546875 107.433594 C 179.550781 116.835938 174.695312 126.78125 172.445312 137.230469 C 172.039062 139.125 175.648438 139.941406 176.058594 138.03125 C 180.035156 119.546875 192.015625 103.144531 204.394531 87.546875 C 210.304688 80.09375 216.296875 72.691406 222.042969 65.15625 C 222.316406 64.796875 222.585938 64.441406 222.859375 64.082031 C 226.078125 62.316406 229.167969 60.421875 232.140625 58.550781 C 241.347656 52.75 250.09375 46.167969 256.988281 38.535156 C 259.972656 35.230469 262.761719 31.546875 263.921875 27.523438 C 264.335938 26.078125 262.582031 25.21875 261.046875 25.746094 Z M 5.886719 86.953125 C 5.90625 86.957031 5.925781 86.960938 5.949219 86.96875 C 5.929688 86.964844 5.910156 86.960938 5.890625 86.957031 Z M 11.714844 84.726562 C 10.082031 85.730469 8.371094 86.683594 6.535156 86.976562 C 6.503906 86.980469 6.445312 86.980469 6.34375 86.988281 C 6.210938 86.992188 6.074219 86.992188 5.9375 86.980469 C 6.347656 87.003906 6.007812 86.941406 5.847656 86.925781 C 5.828125 86.910156 5.808594 86.894531 5.789062 86.878906 C 5.773438 86.847656 5.761719 86.820312 5.742188 86.792969 C 5.71875 86.746094 5.699219 86.71875 5.6875 86.695312 C 5.617188 86.511719 5.5625 86.324219 5.519531 86.132812 C 5.546875 86.1875 5.488281 85.574219 5.492188 85.417969 C 5.511719 84.617188 5.5625 84.4375 5.785156 83.628906 C 6.25 81.941406 7.007812 80.300781 7.929688 78.738281 C 10.390625 74.558594 13.824219 70.734375 17.960938 67.523438 C 20.300781 65.707031 22.855469 64.210938 25.613281 62.835938 C 28.453125 61.414062 31.289062 59.988281 34.117188 58.550781 C 30.738281 63.90625 27.113281 69.15625 23 74.15625 C 19.835938 78.003906 16.3125 81.898438 11.714844 84.726562 Z M 254.625 35.769531 C 251.5625 39.34375 247.953125 42.609375 244.167969 45.695312 C 239.195312 49.757812 233.972656 53.46875 228.5 56.835938 C 231.714844 52.820312 235.066406 48.882812 238.734375 45.132812 C 244.316406 39.433594 250.742188 33.859375 258.636719 30.222656 C 257.550781 32.175781 256.125 34.015625 254.625 35.769531 Z M 254.625 35.769531 " fill-opacity="1" fill-rule="nonzero"/></g><g clip-path="url(#add3396c7a)"><path fill="#ffffff" d="M 233.605469 83.140625 C 248.476562 76.1875 263.859375 69.929688 281.046875 67.835938 C 286.242188 67.203125 291.46875 67.082031 296.703125 66.828125 C 298.792969 66.726562 298.808594 64.289062 296.703125 64.207031 C 287.707031 63.851562 278.351562 65.097656 269.703125 67.054688 C 261.429688 68.929688 253.523438 71.71875 245.921875 74.921875 C 241.257812 76.886719 236.699219 79.007812 232.175781 81.175781 C 230.613281 81.925781 232.027344 83.878906 233.605469 83.140625 Z M 233.605469 83.140625 " fill-opacity="1" fill-rule="nonzero"/></g></svg>