<svg xmlns="http://www.w3.org/2000/svg" xmlns:xlink="http://www.w3.org/1999/xlink" width="400" zoomAndPan="magnify" viewBox="0 0 300 149.999998" height="200" preserveAspectRatio="xMidYMid meet" version="1.0"><defs><clipPath id="1da9ad7ec0"><path d="M 6.667969 24 L 293.167969 24 L 293.167969 126 L 6.667969 126 Z M 6.667969 24 " clip-rule="nonzero"/></clipPath></defs><g clip-path="url(#1da9ad7ec0)"><path fill="#ffffff" d="M 179.722656 24.710938 C 180.457031 23.894531 181.597656 23.894531 182.410156 24.628906 C 183.226562 25.28125 183.226562 26.503906 182.492188 27.316406 C 182.410156 27.398438 167.832031 42.953125 154.722656 63.230469 C 161.890625 60.867188 167.265625 59.078125 171.742188 57.53125 C 179.152344 54.925781 183.957031 52.96875 190.882812 50.039062 C 193.730469 48.816406 195.523438 49.386719 196.335938 51.339844 C 197.152344 53.296875 195.847656 57.367188 193.488281 62.335938 L 193.648438 62.335938 C 195.195312 62.496094 196.175781 63.3125 196.5 64.941406 C 197.152344 68.117188 197.558594 72.109375 197.394531 76.179688 C 200.328125 73.328125 203.910156 70.640625 208.144531 68.851562 C 213.03125 66.734375 215.558594 67.546875 216.617188 69.988281 C 217.265625 71.539062 217.023438 73.816406 216.289062 76.34375 C 218.488281 74.304688 220.851562 72.433594 222.886719 70.96875 C 224.597656 69.746094 226.144531 68.769531 227.527344 68.199219 L 227.609375 68.117188 C 229.484375 67.382812 231.03125 67.304688 232.089844 68.363281 C 232.742188 69.011719 233.066406 69.828125 232.984375 70.886719 C 232.902344 72.921875 232.414062 75.527344 231.683594 78.132812 C 233.308594 76.667969 235.019531 75.285156 236.566406 74.144531 C 237.953125 73.246094 239.253906 72.515625 240.234375 72.027344 C 241.78125 71.375 243.164062 71.292969 244.140625 71.945312 C 244.222656 72.027344 244.222656 72.027344 244.304688 72.109375 C 244.792969 72.515625 245.117188 73.085938 245.28125 73.816406 C 245.445312 74.957031 245.445312 76.832031 245.363281 78.703125 C 246.992188 78.214844 249.027344 77.808594 251.550781 77.484375 C 259.125 76.75 271.75 77.15625 291.539062 79.4375 C 292.597656 79.601562 293.332031 80.496094 293.25 81.554688 C 293.085938 82.613281 292.191406 83.347656 291.132812 83.265625 C 271.585938 81.066406 259.289062 80.578125 251.960938 81.308594 C 248.375 81.71875 246.257812 82.289062 245.039062 82.9375 C 245.039062 83.589844 244.957031 84.160156 244.875 84.648438 C 244.792969 85.382812 244.628906 86.035156 244.46875 86.441406 C 243.492188 89.371094 242.269531 89.78125 240.722656 87.011719 C 240.476562 86.683594 240.3125 86.035156 240.152344 85.054688 C 239.988281 83.589844 240.394531 82.207031 241.371094 81.066406 C 241.535156 79.191406 241.617188 77.238281 241.535156 75.691406 C 240.804688 76.097656 239.824219 76.667969 238.765625 77.320312 C 235.347656 79.761719 231.03125 83.507812 228.914062 86.195312 C 228.832031 86.523438 228.75 86.765625 228.585938 87.011719 C 228.261719 87.90625 227.933594 88.640625 227.691406 89.128906 L 227.527344 89.453125 C 227.367188 90.675781 226.875 91.328125 226.308594 91.570312 C 224.597656 93.933594 223.699219 93.117188 223.699219 88.640625 L 223.699219 88.558594 C 223.78125 88.234375 223.863281 87.824219 223.945312 87.335938 C 224.1875 86.605469 224.679688 85.707031 225.410156 84.730469 C 226.796875 81.148438 228.667969 75.445312 229.074219 71.699219 L 228.996094 71.699219 C 228.015625 72.1875 226.632812 73.003906 225.085938 74.0625 C 220.441406 77.402344 214.578125 82.777344 211.402344 86.359375 C 210.75 87.335938 210.019531 88.234375 209.449219 88.882812 C 209.285156 89.128906 209.125 89.371094 209.125 89.535156 C 209.042969 89.699219 208.878906 89.699219 208.714844 89.617188 C 207.738281 90.675781 206.925781 91.164062 206.597656 91.082031 C 205.378906 90.675781 204.96875 89.699219 205.457031 88.234375 C 205.867188 87.253906 207.25 85.382812 209.203125 83.265625 C 209.53125 82.449219 209.855469 81.636719 210.261719 80.902344 C 212.136719 77.15625 213.765625 73.085938 213.113281 71.539062 C 212.949219 71.210938 211.972656 71.375 209.691406 72.351562 C 204.074219 74.796875 199.675781 78.867188 196.582031 82.695312 C 195.847656 86.035156 194.628906 89.046875 192.753906 91.328125 C 192.671875 91.410156 192.671875 91.410156 192.671875 91.488281 C 191.859375 92.304688 191.207031 92.792969 190.71875 93.039062 C 188.195312 93.851562 187.296875 92.628906 187.949219 89.859375 C 188.195312 89.046875 188.601562 87.90625 189.332031 86.605469 C 190.148438 85.054688 191.371094 83.101562 193 81.066406 C 193.078125 80.578125 193.160156 80.007812 193.242188 79.519531 C 193.8125 74.957031 193.570312 69.988281 192.835938 66.164062 C 192.429688 66.324219 191.859375 66.570312 191.125 66.976562 C 189.578125 69.746094 187.785156 72.757812 185.914062 75.691406 C 179.480469 85.625 171.660156 95.398438 167.832031 97.355469 C 165.796875 98.332031 164.25 98.085938 163.355469 96.214844 C 161.074219 91.652344 171.089844 78.785156 180.292969 70.398438 C 182.898438 68.035156 185.425781 66.082031 187.542969 64.617188 C 187.867188 64.453125 188.113281 64.289062 188.4375 64.046875 C 191.449219 58.671875 193.40625 54.273438 192.835938 52.886719 C 192.671875 52.5625 192.835938 53.375 192.347656 53.539062 C 185.34375 56.554688 180.375 58.507812 173.046875 61.113281 C 167.753906 62.988281 161.074219 65.183594 151.464844 68.363281 C 146.089844 77.074219 141.203125 86.523438 137.945312 95.886719 C 140.144531 104.4375 139.574219 111.851562 138.273438 116.980469 C 137.621094 119.585938 136.804688 121.621094 136.074219 123.007812 C 134.851562 125.207031 133.304688 126.101562 132 125.613281 C 131.269531 125.285156 130.777344 124.71875 130.617188 123.738281 C 129.230469 115.105469 130.777344 105.578125 134.035156 95.886719 C 132.328125 89.941406 129.230469 83.347656 123.855469 76.503906 C 94.050781 83.347656 64.652344 82.207031 42.988281 77.074219 C 32.5625 74.714844 23.851562 71.375 17.660156 67.546875 C 11.144531 63.476562 7.238281 58.832031 6.910156 54.027344 C 6.667969 51.910156 7.15625 49.875 8.375 47.839844 C 9.109375 46.617188 10.003906 45.558594 11.0625 44.5 C 18.394531 37.578125 34.191406 35.785156 52.109375 38.066406 C 69.699219 40.265625 89.410156 46.453125 105.042969 55.65625 C 111.886719 59.648438 117.910156 64.207031 122.636719 69.257812 C 123.613281 70.234375 124.425781 71.292969 125.324219 72.269531 C 129.394531 71.210938 133.546875 70.070312 137.703125 68.769531 C 141.855469 67.382812 145.683594 66.164062 149.101562 65.105469 C 163.027344 42.546875 179.640625 24.792969 179.722656 24.710938 Z M 135.503906 104.355469 C 134.363281 109.164062 133.875 113.722656 133.957031 118.203125 C 134.199219 117.550781 134.363281 116.816406 134.523438 116.085938 C 135.339844 112.988281 135.828125 109 135.503906 104.355469 Z M 136.152344 90.105469 C 138.839844 83.347656 142.34375 76.585938 146.089844 70.070312 C 143.808594 70.804688 141.449219 71.617188 138.839844 72.433594 C 135.257812 73.574219 131.59375 74.632812 127.929688 75.527344 C 131.675781 80.578125 134.363281 85.464844 136.152344 90.105469 Z M 121.089844 73.246094 C 120.679688 72.757812 120.273438 72.351562 119.867188 71.863281 C 115.304688 67.140625 109.605469 62.742188 103.089844 58.914062 C 87.941406 50.039062 68.722656 44.011719 51.621094 41.8125 C 34.761719 39.695312 20.105469 41.242188 13.671875 47.351562 C 12.855469 48.082031 12.203125 48.898438 11.714844 49.792969 C 10.902344 51.097656 10.574219 52.398438 10.738281 53.703125 C 10.984375 57.203125 14.242188 60.867188 19.695312 64.289062 C 25.558594 67.871094 33.867188 71.050781 43.800781 73.328125 C 64.570312 78.214844 92.503906 79.355469 121.089844 73.246094 Z M 182.65625 73.574219 L 182.898438 73.246094 C 175.324219 80.089844 166.9375 89.699219 166.613281 93.609375 C 170.113281 91.246094 176.875 82.53125 182.65625 73.574219 Z M 182.65625 73.574219 " fill-opacity="1" fill-rule="nonzero"/></g></svg>